<svg width="150" height="38" viewBox="0 0 150 38" fill="none" xmlns="http://www.w3.org/2000/svg">
<rect width="150" height="38" rx="4" fill="#1C0E49"/>
<path d="M95.9738 22.0103C95.9586 22.083 95.9434 22.1564 95.9283 22.2291C95.5482 22.2914 95.1666 22.333 94.7851 22.356C95.1902 22.2484 95.5869 22.1349 95.9738 22.0103Z" fill="#FF6720"/>
<path d="M104.474 14.863C103.386 17.8079 101.147 20.4665 98.1243 21.6349C98.1243 21.6349 98.2457 21.0511 98.2465 21.0511C100.7 19.6758 102.374 17.213 103.051 14.5707C103.29 14.4431 103.942 14.0789 103.942 14.0789C103.942 14.0789 104.286 14.5788 104.474 14.863Z" fill="#FF6720"/>
<path d="M99.3262 15.8748C99.3482 15.768 99.3823 15.7012 99.506 15.6923C100.035 15.6515 100.564 15.5677 101.092 15.5721C101.745 15.5766 102.176 16.0269 102.261 16.7093C102.597 16.0231 102.861 15.3058 103.05 14.5707C103.041 14.564 103.032 14.5581 103.023 14.5521C102.502 14.2042 101.906 14.1108 101.295 14.0856C100.045 14.0321 98.8354 14.2695 97.6399 14.5922C97.5761 14.61 97.5026 14.705 97.4874 14.7754C97.3819 15.2784 95.5135 24.2305 95.5135 24.2305H96.9116C97.3053 24.2305 97.6429 23.9337 97.7226 23.5525C97.7233 23.5539 99.2352 16.3147 99.3262 15.8748Z" fill="white"/>
<path d="M104.063 15.8466C102.949 18.2196 101.079 20.3048 98.6518 21.4131C102.584 22.5117 105.171 18.7277 104.063 15.8466Z" fill="white"/>
<path d="M95.0262 17.7345C92.1709 15.0365 87.303 18.1158 88.0836 21.7847C88.5691 24.0673 91.0952 24.5739 93.1396 24.0354C94.4368 23.6941 94.282 22.4635 94.282 22.4635C92.6549 22.8314 89.5583 22.5006 89.8125 21.2848C91.0641 21.6282 92.972 21.7098 94.3109 21.037C96.0579 20.1587 95.7598 18.5401 95.0262 17.7345ZM93.8292 19.2722C93.393 20.1528 90.9003 20.1453 90.0029 19.8879C90.5657 18.6387 92.0457 17.8925 93.4028 18.4333C93.8125 18.5972 93.9945 18.9355 93.8292 19.2722Z" fill="white"/>
<path d="M112.813 17.276C111.604 16.8881 110.153 16.71 109.091 16.71C106.281 16.71 104.512 19.184 104.594 21.3545C104.626 22.1875 104.912 24.0784 107.486 24.2957C108.201 24.3558 108.883 24.266 109.48 23.8343C109.484 23.8306 109.526 23.7943 109.516 23.8462C109.495 23.9671 109.447 24.2327 109.447 24.2327C109.447 24.2327 110.789 24.2327 111.425 24.2327C111.545 24.2327 111.562 24.1518 111.579 24.0695C112.037 21.8811 112.497 19.6973 112.949 17.5075C112.978 17.3695 112.95 17.3191 112.813 17.276ZM110.632 18.5801C110.391 19.7084 110.157 20.8382 109.913 21.9672C109.892 22.0644 109.841 22.1526 109.765 22.2187C109.187 22.7216 108.513 22.887 107.761 22.7179C106.318 22.3937 106.554 20.3931 107.06 19.428C107.52 18.5497 108.561 18.0534 109.621 18.1877C110.681 18.3212 110.659 18.4488 110.632 18.5801Z" fill="white"/>
<path d="M135.983 19.3501C135.835 17.6232 134.441 16.71 132.768 16.71C129.258 16.71 128.099 19.5771 128.206 21.5696C128.309 23.4827 130.039 24.3736 131.782 24.2141C133.402 24.1199 134.619 23.3967 135.371 21.9798C135.806 21.1586 136.089 20.2929 135.983 19.3501ZM131.143 22.5948C129.599 22.2839 130.122 20.2863 130.445 19.6973C131.223 18.2745 132.284 18.2092 132.887 18.3027C133.683 18.4251 134.135 18.9814 134.091 19.9213C134.023 21.3441 132.941 22.956 131.143 22.5948Z" fill="white"/>
<path d="M112.517 27.4536L112.779 26.1985C112.818 26.0516 112.96 25.947 113.115 25.9425C113.9 25.921 114.168 25.7875 114.561 25.3706C114.86 24.9982 115.087 24.6993 115.339 24.3551C115.372 24.3098 115.375 24.229 115.363 24.1696C114.938 22.0607 113.866 16.71 113.866 16.71C113.866 16.71 115.821 16.693 115.943 17.46C116.179 18.9288 116.738 21.8982 116.764 22.0154C116.833 21.899 118.661 18.8309 119.516 17.3599C119.935 16.6381 121.533 16.71 122.061 16.71C120.486 19.2849 117.426 24.2779 116.949 25.0539C115.709 27.0671 114.618 27.4692 113.476 27.4551C113.165 27.4514 112.517 27.4536 112.517 27.4536Z" fill="white"/>
<path d="M126.995 22.1579C126.885 22.6868 126.684 23.6489 126.677 23.683C126.665 23.7394 126.641 23.8017 126.565 23.8299C125.509 24.2156 124.383 24.3974 123.358 24.042C120.041 22.8937 120.932 17.6826 124.396 16.8532C126.097 16.446 127.793 17.0357 127.875 17.0609C127.972 17.0906 128.032 17.1855 128.012 17.282C127.952 17.572 127.762 18.4904 127.753 18.5238C126.794 18.2204 125.785 18.0008 124.805 18.3376C122.857 19.0082 122.434 22.2765 124.371 22.6593C125.3 22.8433 126.15 22.5213 126.995 22.1579Z" fill="white"/>
<path d="M13.0364 24.3239V13.7297H17.7577C18.5693 13.7297 19.2383 13.8832 19.7647 14.1903C20.2912 14.4974 20.6805 14.9196 20.9327 15.457C21.185 15.9834 21.3111 16.5866 21.3111 17.2666C21.3111 18.3194 20.9821 19.1639 20.3241 19.8C19.677 20.4361 18.7996 20.7541 17.6919 20.7541H14.8295V24.3239H13.0364ZM14.8295 19.3394H17.3629C18.0758 19.3394 18.6132 19.1529 18.9751 18.7801C19.337 18.4072 19.518 17.9027 19.518 17.2666C19.518 16.5866 19.3425 16.0602 18.9915 15.6873C18.6516 15.3144 18.1361 15.128 17.4452 15.128H14.8295V19.3394ZM24.8531 24.4885C24.3596 24.4885 23.899 24.4007 23.4713 24.2252C23.0545 24.0498 22.72 23.7866 22.4678 23.4356C22.2155 23.0737 22.0894 22.6295 22.0894 22.1031C22.0894 21.3573 22.3417 20.7596 22.8462 20.31C23.3616 19.8494 24.1512 19.619 25.2151 19.619H27.7156V19.2736C27.7156 18.9007 27.6552 18.6046 27.5346 18.3852C27.4249 18.1659 27.2166 18.0069 26.9095 17.9082C26.6134 17.8095 26.1747 17.7601 25.5934 17.7601C24.6722 17.7601 23.8113 17.8972 23.0107 18.1714V16.8389C23.3616 16.6963 23.7893 16.5811 24.2938 16.4934C24.7983 16.4057 25.3412 16.3618 25.9224 16.3618C27.063 16.3618 27.9294 16.5921 28.5216 17.0527C29.1248 17.5134 29.4264 18.2646 29.4264 19.3065V24.3239H27.8965L27.7814 23.5343C27.4633 23.8414 27.0685 24.0772 26.5969 24.2417C26.1363 24.4062 25.555 24.4885 24.8531 24.4885ZM25.3302 23.2053C25.8676 23.2053 26.3337 23.1176 26.7285 22.9421C27.1343 22.7556 27.4633 22.5089 27.7156 22.2018V20.8364H25.248C24.7215 20.8364 24.3377 20.9406 24.0964 21.149C23.8661 21.3464 23.7509 21.6534 23.7509 22.0702C23.7509 22.476 23.888 22.7666 24.1622 22.9421C24.4364 23.1176 24.8257 23.2053 25.3302 23.2053ZM34.5735 27.2193C33.9922 27.2193 33.4109 27.1809 32.8297 27.1041C32.2484 27.0383 31.7549 26.9341 31.3491 26.7915V25.4097C31.7878 25.5523 32.2923 25.6619 32.8626 25.7387C33.4329 25.8155 33.9757 25.8539 34.4912 25.8539C35.2808 25.8539 35.8566 25.81 36.2185 25.7223C36.5804 25.6345 36.7614 25.4371 36.7614 25.13C36.7614 24.8997 36.6737 24.7352 36.4982 24.6365C36.3227 24.5488 35.9882 24.5049 35.4947 24.5049H33.389C31.9742 24.5049 31.2669 24.0059 31.2669 23.0079C31.2669 22.6898 31.3601 22.3937 31.5465 22.1195C31.733 21.8454 32.0291 21.637 32.4349 21.4944C31.9852 21.2751 31.6507 20.9735 31.4314 20.5896C31.223 20.2058 31.1188 19.7452 31.1188 19.2078C31.1188 18.2098 31.4149 17.4859 32.0071 17.0363C32.6103 16.5866 33.5096 16.3618 34.7051 16.3618C34.9573 16.3618 35.2205 16.3837 35.4947 16.4276C35.7689 16.4605 35.9827 16.4934 36.1363 16.5263H38.9987L38.9493 17.6943H37.6333C37.8417 17.8698 37.9952 18.0891 38.0939 18.3523C38.1926 18.6155 38.242 18.9007 38.242 19.2078C38.242 20.0413 37.9897 20.6993 37.4852 21.1819C36.9807 21.6534 36.2185 21.8892 35.1986 21.8892C35.0231 21.8892 34.8586 21.8838 34.7051 21.8728C34.5625 21.8509 34.4035 21.8289 34.228 21.807C33.899 21.8399 33.6029 21.9276 33.3396 22.0702C33.0764 22.2128 32.9448 22.4047 32.9448 22.646C32.9448 22.8105 33.0106 22.9311 33.1422 23.0079C33.2738 23.0737 33.4932 23.1066 33.8003 23.1066H35.9882C36.7669 23.1066 37.3646 23.2766 37.7813 23.6166C38.2091 23.9456 38.4229 24.4281 38.4229 25.0642C38.4229 25.8319 38.0884 26.3803 37.4194 26.7093C36.7614 27.0493 35.8127 27.2193 34.5735 27.2193ZM34.7051 20.7541C35.4179 20.7541 35.9114 20.6335 36.1856 20.3922C36.4708 20.1509 36.6133 19.7397 36.6133 19.1584C36.6133 18.5772 36.4708 18.1549 36.1856 17.8917C35.9114 17.6285 35.4179 17.4969 34.7051 17.4969C34.0361 17.4969 33.548 17.623 33.2409 17.8753C32.9339 18.1275 32.7803 18.5552 32.7803 19.1584C32.7803 19.7177 32.9229 20.1235 33.208 20.3758C33.5042 20.628 34.0032 20.7541 34.7051 20.7541ZM42.2999 24.4885C41.8064 24.4885 41.3457 24.4007 40.918 24.2252C40.5013 24.0498 40.1668 23.7866 39.9145 23.4356C39.6623 23.0737 39.5362 22.6295 39.5362 22.1031C39.5362 21.3573 39.7884 20.7596 40.2929 20.31C40.8084 19.8494 41.598 19.619 42.6618 19.619H45.1623V19.2736C45.1623 18.9007 45.102 18.6046 44.9813 18.3852C44.8717 18.1659 44.6633 18.0069 44.3562 17.9082C44.0601 17.8095 43.6214 17.7601 43.0402 17.7601C42.1189 17.7601 41.258 17.8972 40.4574 18.1714V16.8389C40.8084 16.6963 41.2361 16.5811 41.7406 16.4934C42.245 16.4057 42.7879 16.3618 43.3692 16.3618C44.5098 16.3618 45.3762 16.5921 45.9684 17.0527C46.5716 17.5134 46.8732 18.2646 46.8732 19.3065V24.3239H45.3433L45.2281 23.5343C44.9101 23.8414 44.5152 24.0772 44.0437 24.2417C43.583 24.4062 43.0018 24.4885 42.2999 24.4885ZM42.777 23.2053C43.3143 23.2053 43.7804 23.1176 44.1753 22.9421C44.581 22.7556 44.9101 22.5089 45.1623 22.2018V20.8364H42.6947C42.1683 20.8364 41.7844 20.9406 41.5432 21.149C41.3128 21.3464 41.1977 21.6534 41.1977 22.0702C41.1977 22.476 41.3348 22.7666 41.609 22.9421C41.8831 23.1176 42.2725 23.2053 42.777 23.2053ZM48.8617 24.3239V16.5263H50.5067L50.6054 17.4311C50.9783 17.1898 51.4225 16.9705 51.9379 16.7731C52.4534 16.5757 52.9634 16.4386 53.4679 16.3618V17.7272C53.1608 17.782 52.8263 17.8643 52.4644 17.974C52.1134 18.0727 51.7789 18.1878 51.4609 18.3194C51.1428 18.4401 50.8741 18.5662 50.6548 18.6978V24.3239H48.8617ZM62.398 24.4885C61.0271 24.4885 59.9907 24.143 59.2888 23.4521C58.5869 22.7502 58.236 21.7412 58.236 20.4251C58.236 19.0542 58.6198 18.0343 59.3875 17.3653C60.1662 16.6963 61.2026 16.3618 62.4967 16.3618C63.0341 16.3618 63.4838 16.4002 63.8457 16.477C64.2186 16.5537 64.575 16.6744 64.915 16.8389V18.1714C64.3447 17.8862 63.6538 17.7437 62.8422 17.7437C61.9429 17.7437 61.252 17.9466 60.7694 18.3523C60.2868 18.7472 60.0456 19.4381 60.0456 20.4251C60.0456 21.3573 60.2594 22.0428 60.6871 22.4815C61.1149 22.9092 61.8222 23.123 62.8093 23.123C63.588 23.123 64.2953 22.975 64.9314 22.6789V24.0443C64.5695 24.1869 64.1802 24.2965 63.7634 24.3733C63.3576 24.4501 62.9025 24.4885 62.398 24.4885ZM70.0909 24.4885C68.6871 24.4885 67.6562 24.1375 66.9982 23.4356C66.3511 22.7337 66.0276 21.7302 66.0276 20.4251C66.0276 19.12 66.3566 18.1165 67.0146 17.4146C67.6727 16.7128 68.6981 16.3618 70.0909 16.3618C71.4947 16.3618 72.5256 16.7128 73.1836 17.4146C73.8417 18.1165 74.1707 19.12 74.1707 20.4251C74.1707 21.7302 73.8417 22.7337 73.1836 23.4356C72.5366 24.1375 71.5057 24.4885 70.0909 24.4885ZM70.0909 22.975C70.9134 22.975 71.4947 22.7776 71.8347 22.3828C72.1856 21.977 72.3611 21.3244 72.3611 20.4251C72.3611 19.5258 72.1856 18.8788 71.8347 18.4839C71.4947 18.0891 70.9134 17.8917 70.0909 17.8917C69.2793 17.8917 68.6981 18.0891 68.3471 18.4839C68.0072 18.8788 67.8372 19.5258 67.8372 20.4251C67.8372 21.3244 68.0072 21.977 68.3471 22.3828C68.6981 22.7776 69.2793 22.975 70.0909 22.975ZM75.9154 24.3239V16.5263H77.5604L77.6427 17.3488C77.9936 17.0747 78.4104 16.8444 78.8929 16.6579C79.3865 16.4605 79.9293 16.3618 80.5216 16.3618C81.5305 16.3618 82.2653 16.5976 82.726 17.0692C83.1866 17.5408 83.4169 18.2756 83.4169 19.2736V24.3239H81.6402V19.3558C81.6402 18.7526 81.5141 18.3304 81.2618 18.0891C81.0206 17.8478 80.5599 17.7272 79.88 17.7272C79.4742 17.7272 79.0739 17.8095 78.6791 17.974C78.2952 18.1385 77.9717 18.3523 77.7085 18.6155V24.3239H75.9154Z" fill="white"/>
</svg>
