<svg width="150" height="38" viewBox="0 0 150 38" fill="none" xmlns="http://www.w3.org/2000/svg">
<rect width="150" height="38" rx="4" fill="white"/>
<path d="M91.9738 22.0103C91.9586 22.083 91.9434 22.1564 91.9283 22.2291C91.5482 22.2914 91.1666 22.333 90.7851 22.356C91.1902 22.2484 91.5869 22.1349 91.9738 22.0103Z" fill="#FF6720"/>
<path d="M100.474 14.863C99.3859 17.8079 97.1465 20.4665 94.1243 21.6349C94.1243 21.6349 94.2457 21.0511 94.2465 21.0511C96.6997 19.6758 98.3739 17.213 99.0506 14.5707C99.2896 14.4431 99.9419 14.0789 99.9419 14.0789C99.9419 14.0789 100.286 14.5788 100.474 14.863Z" fill="#FF6720"/>
<path d="M95.3262 15.8748C95.3482 15.768 95.3823 15.7012 95.506 15.6923C96.0355 15.6515 96.5642 15.5677 97.0922 15.5721C97.7446 15.5766 98.1762 16.0269 98.2612 16.7093C98.5972 16.0231 98.8612 15.3058 99.0501 14.5707C99.041 14.564 99.0319 14.5581 99.0228 14.5522C98.5017 14.2042 97.9062 14.1108 97.2947 14.0856C96.0453 14.0321 94.8354 14.2695 93.6399 14.5922C93.5761 14.61 93.5026 14.705 93.4874 14.7754C93.3819 15.2784 91.5135 24.2305 91.5135 24.2305H92.9116C93.3053 24.2305 93.6429 23.9337 93.7226 23.5525C93.7233 23.5539 95.2352 16.3147 95.3262 15.8748Z" fill="#1C0E49"/>
<path d="M100.063 15.8466C98.9492 18.2196 97.0792 20.3048 94.6518 21.4131C98.5835 22.5117 101.171 18.7277 100.063 15.8466Z" fill="#1C0E49"/>
<path d="M91.0262 17.7345C88.1709 15.0365 83.303 18.1158 84.0836 21.7847C84.5691 24.0673 87.0952 24.5739 89.1396 24.0354C90.4368 23.6941 90.282 22.4635 90.282 22.4635C88.6549 22.8314 85.5583 22.5006 85.8125 21.2848C87.0641 21.6282 88.972 21.7098 90.3109 21.037C92.0579 20.1587 91.7598 18.5401 91.0262 17.7345ZM89.8292 19.2722C89.393 20.1528 86.9003 20.1453 86.0029 19.8879C86.5657 18.6387 88.0457 17.8925 89.4028 18.4333C89.8125 18.5972 89.9945 18.9355 89.8292 19.2722Z" fill="#1C0E49"/>
<path d="M108.813 17.276C107.604 16.8881 106.153 16.71 105.091 16.71C102.281 16.71 100.512 19.184 100.594 21.3545C100.626 22.1875 100.912 24.0784 103.486 24.2957C104.201 24.3558 104.883 24.266 105.48 23.8343C105.484 23.8306 105.526 23.7943 105.516 23.8462C105.495 23.9671 105.447 24.2327 105.447 24.2327C105.447 24.2327 106.789 24.2327 107.425 24.2327C107.545 24.2327 107.562 24.1518 107.579 24.0695C108.037 21.8811 108.497 19.6973 108.949 17.5075C108.978 17.3695 108.95 17.3191 108.813 17.276ZM106.632 18.5801C106.391 19.7084 106.157 20.8382 105.913 21.9672C105.892 22.0644 105.841 22.1527 105.765 22.2187C105.187 22.7216 104.513 22.887 103.761 22.7179C102.318 22.3937 102.554 20.3931 103.06 19.428C103.52 18.5497 104.561 18.0534 105.621 18.1877C106.681 18.3212 106.659 18.4488 106.632 18.5801Z" fill="#1C0E49"/>
<path d="M131.983 19.3501C131.835 17.6232 130.441 16.71 128.768 16.71C125.258 16.71 124.099 19.5771 124.206 21.5696C124.309 23.4827 126.039 24.3736 127.782 24.2141C129.402 24.1199 130.619 23.3967 131.371 21.9798C131.806 21.1586 132.089 20.2929 131.983 19.3501ZM127.143 22.5948C125.599 22.2839 126.122 20.2863 126.445 19.6973C127.223 18.2745 128.284 18.2092 128.887 18.3027C129.683 18.4251 130.135 18.9814 130.091 19.9213C130.023 21.3441 128.941 22.956 127.143 22.5948Z" fill="#1C0E49"/>
<path d="M108.517 27.4536L108.779 26.1985C108.818 26.0516 108.96 25.947 109.115 25.9425C109.9 25.921 110.168 25.7875 110.561 25.3706C110.86 24.9982 111.087 24.6993 111.339 24.3551C111.372 24.3098 111.375 24.229 111.363 24.1696C110.938 22.0607 109.866 16.7101 109.866 16.7101C109.866 16.7101 111.821 16.693 111.943 17.46C112.179 18.9288 112.738 21.8982 112.764 22.0154C112.833 21.899 114.661 18.8309 115.516 17.3599C115.935 16.6381 117.533 16.7101 118.061 16.7101C116.486 19.2849 113.426 24.2779 112.949 25.0539C111.709 27.0671 110.618 27.4692 109.476 27.4551C109.165 27.4514 108.517 27.4536 108.517 27.4536Z" fill="#1C0E49"/>
<path d="M122.995 22.1579C122.885 22.6868 122.684 23.6489 122.677 23.683C122.665 23.7394 122.641 23.8017 122.565 23.8299C121.509 24.2156 120.383 24.3974 119.358 24.042C116.041 22.8937 116.932 17.6826 120.396 16.8532C122.097 16.446 123.793 17.0357 123.875 17.0609C123.972 17.0906 124.032 17.1855 124.012 17.282C123.952 17.572 123.762 18.4904 123.753 18.5238C122.794 18.2204 121.785 18.0008 120.805 18.3376C118.857 19.0082 118.434 22.2765 120.371 22.6593C121.3 22.8433 122.15 22.5213 122.995 22.1579Z" fill="#1C0E49"/>
<path d="M18.9646 24.3239V13.7297H23.686C24.4976 13.7297 25.1666 13.8832 25.693 14.1903C26.2194 14.4974 26.6087 14.9196 26.861 15.457C27.1132 15.9834 27.2394 16.5866 27.2394 17.2666C27.2394 18.3194 26.9103 19.1639 26.2523 19.8C25.6052 20.4361 24.7279 20.7541 23.6202 20.7541H20.7578V24.3239H18.9646ZM20.7578 19.3394H23.2912C24.004 19.3394 24.5414 19.1529 24.9034 18.7801C25.2653 18.4072 25.4462 17.9027 25.4462 17.2666C25.4462 16.5866 25.2708 16.0602 24.9198 15.6873C24.5798 15.3144 24.0644 15.128 23.3734 15.128H20.7578V19.3394ZM30.7814 24.4885C30.2879 24.4885 29.8273 24.4007 29.3995 24.2252C28.9828 24.0498 28.6483 23.7866 28.396 23.4356C28.1438 23.0737 28.0177 22.6295 28.0177 22.1031C28.0177 21.3573 28.2699 20.7596 28.7744 20.31C29.2899 19.8494 30.0795 19.619 31.1433 19.619H33.6438V19.2736C33.6438 18.9007 33.5835 18.6046 33.4629 18.3852C33.3532 18.1659 33.1448 18.0069 32.8377 17.9082C32.5416 17.8095 32.1029 17.7601 31.5217 17.7601C30.6004 17.7601 29.7395 17.8972 28.9389 18.1714V16.8389C29.2899 16.6963 29.7176 16.5811 30.2221 16.4934C30.7266 16.4057 31.2694 16.3618 31.8507 16.3618C32.9913 16.3618 33.8577 16.5921 34.4499 17.0527C35.0531 17.5134 35.3547 18.2646 35.3547 19.3065V24.3239H33.8248L33.7096 23.5343C33.3916 23.8414 32.9968 24.0772 32.5252 24.2417C32.0645 24.4062 31.4833 24.4885 30.7814 24.4885ZM31.2585 23.2053C31.7959 23.2053 32.262 23.1176 32.6568 22.9421C33.0626 22.7556 33.3916 22.5089 33.6438 22.2018V20.8364H31.1762C30.6498 20.8364 30.2659 20.9406 30.0247 21.149C29.7944 21.3464 29.6792 21.6534 29.6792 22.0702C29.6792 22.476 29.8163 22.7666 30.0905 22.9421C30.3646 23.1176 30.754 23.2053 31.2585 23.2053ZM38.3644 27.2193C37.7722 27.2193 37.2677 27.1425 36.8509 26.989V25.6565C37.0374 25.7223 37.2074 25.7661 37.3609 25.7881C37.5254 25.81 37.6899 25.821 37.8544 25.821C38.1944 25.821 38.4686 25.7661 38.677 25.6565C38.8853 25.5468 39.0663 25.3713 39.2198 25.13C39.3843 24.8997 39.5598 24.5981 39.7463 24.2252L36.2752 16.5263H38.1341L40.6346 22.317L43.168 16.5263H45.0105L41.8355 23.8798C41.5613 24.5378 41.2652 25.1136 40.9472 25.6071C40.6401 26.1116 40.2782 26.5064 39.8614 26.7915C39.4556 27.0767 38.9566 27.2193 38.3644 27.2193ZM51.9547 24.3239L49.8984 16.5263H51.6915L53.0405 22.2018L54.5704 17.4805V16.5263H55.9358L57.6302 22.2018L58.9792 16.5263H60.7559L58.716 24.3239H57.0216L55.36 19.2242L53.6656 24.3239H51.9547ZM62.5809 14.8977V13.4171H64.5385V14.8977H62.5809ZM62.7289 24.3239V17.8917H61.5445L61.709 16.5263H64.522V24.3239H62.7289ZM69.5914 24.4885C68.7579 24.4885 68.1328 24.2691 67.7161 23.8304C67.3103 23.3808 67.1074 22.7721 67.1074 22.0044V17.9246H65.9558V16.5263H67.1074V14.7332L68.8841 14.1903V16.5263H70.9568L70.8417 17.9246H68.8841V21.9057C68.8841 22.3553 68.9882 22.6734 69.1966 22.8598C69.405 23.0353 69.745 23.123 70.2166 23.123C70.5127 23.123 70.8252 23.0682 71.1543 22.9585V24.2252C70.7265 24.4007 70.2056 24.4885 69.5914 24.4885ZM72.5258 24.3239V13.2362H74.319V17.283C74.6589 17.0089 75.0647 16.7895 75.5363 16.625C76.0079 16.4495 76.5398 16.3618 77.132 16.3618C78.1191 16.3618 78.8484 16.5976 79.32 17.0692C79.7916 17.5408 80.0273 18.2756 80.0273 19.2736V24.3239H78.2507V19.3558C78.2507 18.7526 78.1191 18.3304 77.8559 18.0891C77.6036 17.8478 77.1594 17.7272 76.5233 17.7272C76.1285 17.7272 75.7282 17.8149 75.3224 17.9904C74.9167 18.1549 74.5822 18.3743 74.319 18.6485V24.3239H72.5258Z" fill="#1C0E49"/>
</svg>
