<svg width="151" height="46" viewBox="0 0 151 46" fill="none" xmlns="http://www.w3.org/2000/svg">
<path d="M24.9763 27.2256C24.9288 27.4568 24.8813 27.6903 24.8338 27.9215C23.6433 28.1197 22.4481 28.2518 21.2529 28.3249C22.5218 27.9828 23.7645 27.6219 24.9763 27.2256Z" fill="#FF6720"/>
<path d="M51.6012 4.49618C48.1938 13.8615 41.1794 22.3163 31.7129 26.0317C31.7129 26.0317 32.0931 24.1752 32.0954 24.1752C39.7799 19.8015 45.024 11.9696 47.1435 3.56672C47.892 3.16097 49.9355 2.00269 49.9355 2.00269C49.9355 2.00269 51.0143 3.59267 51.6012 4.49618Z" fill="#FF6720"/>
<path d="M35.4776 7.7139C35.5465 7.3742 35.6534 7.16189 36.0408 7.13358C37.6993 7.00383 39.3555 6.73726 41.0093 6.75142C43.0527 6.76557 44.4048 8.1975 44.6709 10.3678C45.7235 8.1857 46.5504 5.90453 47.1421 3.56673C47.1135 3.5455 47.085 3.52663 47.0565 3.50776C45.4241 2.40137 43.5588 2.10414 41.6437 2.02393C37.7302 1.85408 33.9403 2.60897 30.1955 3.63514C29.9959 3.69176 29.7654 3.99372 29.7179 4.21782C29.3876 5.81724 23.5352 34.286 23.5352 34.286H27.9144C29.1476 34.286 30.205 33.3423 30.4545 32.1298C30.4568 32.1345 35.1925 9.1128 35.4776 7.7139Z" fill="#1C0E49"/>
<path d="M50.3142 7.62402C46.826 15.1705 40.9689 21.8018 33.3652 25.3262C45.6807 28.8199 53.7857 16.7865 50.3142 7.62402Z" fill="#1C0E49"/>
<path d="M22.0084 13.628C13.0646 5.04821 -2.18309 14.8405 0.261951 26.5083C1.78268 33.767 9.69521 35.3782 16.0989 33.6655C20.1621 32.5804 19.6774 28.6668 19.6774 28.6668C14.5805 29.8368 4.88116 28.7847 5.67717 24.9183C9.59779 26.0105 15.5738 26.27 19.7677 24.1304C25.2399 21.3373 24.3061 16.1899 22.0084 13.628ZM18.2588 18.5182C16.8925 21.3184 9.08455 21.2948 6.27358 20.4762C8.03667 16.5036 12.6725 14.1305 16.9234 15.8502C18.2065 16.3715 18.7768 17.4472 18.2588 18.5182Z" fill="#1C0E49"/>
<path d="M77.7215 12.1701C73.9339 10.9363 69.3908 10.3701 66.0642 10.3701C57.2606 10.3701 51.7194 18.2375 51.9784 25.14C52.0782 27.7892 52.974 33.8023 61.0363 34.4935C63.2746 34.6846 65.4107 34.3991 67.2807 33.0262C67.295 33.0144 67.4257 32.8988 67.3948 33.0639C67.3283 33.4485 67.1786 34.293 67.1786 34.293C67.1786 34.293 71.382 34.293 73.3755 34.293C73.751 34.293 73.8032 34.0359 73.8579 33.774C75.2907 26.8149 76.733 19.8699 78.1492 12.9061C78.2395 12.4673 78.1516 12.3069 77.7215 12.1701ZM70.8901 16.3172C70.1345 19.9053 69.4026 23.4981 68.6399 27.0885C68.5734 27.3976 68.4118 27.6783 68.1742 27.8882C66.3636 29.4877 64.2535 30.0137 61.8964 29.4759C57.377 28.445 58.1184 22.0827 59.7009 19.0136C61.1432 16.2205 64.4032 14.6423 67.7227 15.0693C71.0445 15.4939 70.9756 15.8997 70.8901 16.3172Z" fill="#1C0E49"/>
<path d="M150.298 18.7659C149.835 13.2741 145.467 10.3701 140.226 10.3701C129.234 10.3701 125.603 19.4877 125.938 25.8241C126.259 31.908 131.679 34.7412 137.139 34.234C142.212 33.9344 146.023 31.6344 148.381 27.1286C149.745 24.5172 150.628 21.7642 150.298 18.7659ZM135.138 29.0843C130.301 28.0958 131.94 21.743 132.95 19.8699C135.388 15.3453 138.71 15.1377 140.599 15.4349C143.094 15.8242 144.51 17.5935 144.37 20.5823C144.158 25.1069 140.767 30.2331 135.138 29.0843Z" fill="#1C0E49"/>
<path d="M76.7949 44.5359L77.6147 40.5444C77.7383 40.0773 78.1826 39.7447 78.6697 39.7305C81.1266 39.6621 81.9678 39.2375 83.1962 37.9117C84.1348 36.7275 84.8453 35.7768 85.6341 34.6822C85.7387 34.5383 85.7482 34.2812 85.7102 34.0925C84.3795 27.3857 81.0221 10.3701 81.0221 10.3701C81.0221 10.3701 87.143 10.3158 87.5279 12.7551C88.2669 17.4259 90.0157 26.8691 90.0989 27.2418C90.3151 26.8715 96.0392 17.1145 98.7171 12.4366C100.031 10.1413 105.038 10.3701 106.691 10.3701C101.756 18.5583 92.1709 34.4369 90.6763 36.9044C86.7937 43.3068 83.3768 44.5854 79.7984 44.5406C78.8241 44.5288 76.7949 44.5359 76.7949 44.5359Z" fill="#1C0E49"/>
<path d="M122.146 27.6948C121.799 29.3768 121.169 32.4365 121.148 32.545C121.112 32.7243 121.036 32.9224 120.796 33.0121C117.491 34.2388 113.962 34.8167 110.752 33.6868C100.364 30.035 103.153 13.4628 114.003 10.8255C119.33 9.53035 124.643 11.4058 124.902 11.486C125.204 11.5803 125.391 11.8823 125.33 12.189C125.142 13.1113 124.546 16.0318 124.519 16.138C121.514 15.1731 118.356 14.4749 115.286 15.5459C109.184 17.6784 107.858 28.0723 113.927 29.2895C116.835 29.8746 119.496 28.8508 122.146 27.6948Z" fill="#1C0E49"/>
</svg>
